<svg t="1719217724204" class="icon" viewBox="0 0 1024 1024" version="1.1" xmlns="http://www.w3.org/2000/svg" p-id="9259" width="64" height="64"><path d="M1024.170667 139.904v471.594667c-2.986667 2.730667-6.570667 3.072-10.325334 3.242666-3.242667 0.128-6.528 0.128-9.813333 0.128H20.48c-6.869333 0-14.08 1.621333-20.309333-3.370666V137.813333C8.618667 101.845333 29.056 85.333333 65.792 85.333333h892.928c7.04 0 14.08-0.170667 20.778667 2.090667 25.472 8.021333 42.154667 23.893333 44.672 52.48z" fill="#57A3FE" p-id="9260"></path><path d="M1024.170667 755.114667c-4.522667 2.389333-3.584 7.68-5.461334 11.392-11.093333 22.314667-28.586667 34.816-52.949333 35.626666-20.010667 0.64-39.978667 0.170667-59.989333 0.170667-97.92 0-195.84 0.170667-293.802667-0.170667-8.576 0-11.093333 1.92-10.922667 11.093334 0.64 35.754667 0.469333 71.68 0 107.648-0.170667 7.253333 1.877333 8.96 8.746667 8.832 20.906667-0.469333 42.026667-0.341333 62.933333-0.170667 20.138667 0.170667 33.578667 12.672 33.450667 31.146667-0.170667 17.962667-13.312 30.293333-33.109333 30.293333H351.146667c-19.84 0-32.981333-12.16-33.109334-30.293333-0.170667-18.474667 13.226667-31.146667 33.408-31.146667 20.906667-0.170667 42.026667-0.298667 62.933334 0.170667 6.869333 0.170667 8.917333-1.621333 8.746666-8.832a4198.912 4198.912 0 0 1 0-108.629334c0.170667-8.192-2.133333-9.941333-9.813333-9.941333-114.645333 0.298667-229.290667-0.170667-343.808 0.298667C36.437333 802.773333 12.970667 790.101333 2.218667 756.906667c-0.170667-0.768-1.28-1.28-2.048-1.749334v-82.005333c2.986667-2.730667 6.570667-3.029333 10.325333-3.2 3.242667-0.170667 6.698667-0.170667 9.984-0.170667h983.552c6.826667 0 14.08-1.578667 20.309333 3.413334C1024.170667 700.373333 1024.170667 727.637333 1024.170667 755.072z" fill="#285C9A" p-id="9261"></path><path d="M1024.170667 672.981333c-3.285333 0.128-6.570667 0.426667-10.026667 0.426667H9.984c-3.242667 0-6.528-0.298667-9.984-0.426667v-61.482666c3.285333 0.170667 6.570667 0.469333 9.984 0.469333h1004.16c3.285333 0 6.570667-0.298667 10.026667-0.469333v61.44zM283.477333 387.328c27.221333 19.114667 53.290667 37.248 79.36 55.68 15.616 11.093333 19.541333 29.013333 10.026667 43.648-9.386667 14.293333-26.88 17.834667-42.368 7.850667-11.52-7.338667-22.613333-15.701333-33.877333-23.552-23.893333-16.725333-47.957333-33.408-71.68-50.261334-26.581333-18.773333-26.581333-48.298667 0.128-67.072 34.56-24.362667 69.205333-48.64 103.893333-72.533333 20.138667-13.952 43.904-4.778667 48.256 18.346667 2.816 14.421333-3.754667 25.002667-15.146667 32.853333l-78.549333 55.04zM740.864 387.328c-27.178667-18.944-52.949333-37.077333-78.72-55.04-11.093333-7.68-17.365333-18.133333-15.018667-32.085333 3.754667-22.784 27.648-32.896 47.189334-19.882667 20.608 13.781333 40.746667 28.373333 61.056 42.496 15.146667 10.581333 30.293333 21.034667 45.312 31.786667 24.96 17.962667 25.130667 47.488 0.298666 65.152-34.688 24.746667-69.674667 48.938667-104.789333 73.173333-16.554667 11.52-34.986667 8.533333-44.672-6.741333-9.557333-14.933333-5.162667-32.554667 11.221333-44.117334 25.6-18.133333 51.541333-36.138667 78.08-54.741333zM602.112 277.248c0.469333 6.741333-2.133333 12.672-5.290667 18.304-38.912 70.912-77.781333 141.866667-116.522666 212.778667-7.168 13.013333-17.024 20.864-32.341334 18.944-12.330667-1.621333-20.48-9.002667-24.533333-21.034667-3.413333-10.24-0.426667-19.242667 4.565333-28.245333 29.824-54.229333 59.477333-108.629333 89.344-162.858667 9.685333-17.834667 19.2-35.84 29.354667-53.290667a28.288 28.288 0 0 1 33.408-13.781333c13.610667 3.84 22.016 15.232 22.016 29.184z" fill="#FEFEFE" p-id="9262"></path></svg>